# xmcd
#
# Track frame offsets:
#	150
#	4827
#	23259
#	34348
#	47028
#	61379
#	75525
#	90071
#	103543
#	118613
#	132325
#	146503
#	159808
#	170891
#	182436
#
# Disc length: 2638 seconds
#
# Revision: 1
# Processed by: cddbd v1.5.2PL0 Copyright (c) Steve Scherf et al.
# Submitted via: audiograbber 1.83.01
#
DISCID=ae0a4c0f
DTITLE=ISRAEL FILHO - SAUDADES DE GONZAGÃO
DYEAR=1900
DGENRE=FORRÓ
TTITLE0=GONZAGÃO APRES. ISMAEL FILHO-13/07/1985
TTITLE1=SAUDADE DE GONZAGÃO
TTITLE2=VOZES DA SECA
TTITLE3=BALANCE EU
TTITLE4=FEIRA DE CARUARU
TTITLE5=BOIADEIRO
TTITLE6=JUAZEIRO
TTITLE7=ADEUS IRACEMA
TTITLE8=CAPITAL DO AGRESTE
TTITLE9=ONDE TÁ TU NENEM
TTITLE10=MACEIÓ
TTITLE11=AÇUCENA CHEIROSA
TTITLE12=A MORTE DO VAQUEIRO
TTITLE13=ALGODÃO
TTITLE14=SAUDADES DO FORRÓ DE GONZAGÃO
EXTD=
EXTT0=
EXTT1=
EXTT2=
EXTT3=
EXTT4=
EXTT5=
EXTT6=
EXTT7=
EXTT8=
EXTT9=
EXTT10=
EXTT11=
EXTT12=
EXTT13=
EXTT14=
PLAYORDER=
